#N canvas 526 94 687 605 10;
#X obj 261 341 osc~ 440;
#X obj 261 559 dac~;
#X obj 261 478 *~ 0;
#X floatatom 304 441 0 0 0 0 - - -;
#X obj 292 408 dbtorms;
#X floatatom 292 375 0 0 80 0 - - -;
#X msg 75 387 \; pd dsp \$1;
#X obj 537 346 netsend;
#X msg 487 278 disconnect;
#X floatatom 537 373 0 0 0 0 - - -;
#X obj 580 383 print backward;
#X obj 76 112 netreceive 3000;
#X obj 76 267 send audioOnOff;
#X obj 155 240 send audioVolume;
#X obj 313 197 send route-error;
#X obj 513 138 receive route-error;
#X obj 75 342 receive audioOnOff;
#X obj 353 341 receive audioVolume;
#X obj 513 173 print Route Error!;
#X msg 549 303 send Route Error!;
#X msg 76 72 listen 0;
#X msg 76 46 listen 3000;
#X obj 76 173 route audioonoff audiovolume printvalues;
#X obj 234 218 send printValues;
#X obj 70 463 receive printValues;
#X obj 70 497 print values;
#X obj 107 145 print RECEIVED;
#X connect 0 0 2 0;
#X connect 2 0 1 0;
#X connect 2 0 1 1;
#X connect 4 0 2 1;
#X connect 4 0 3 0;
#X connect 5 0 4 0;
#X connect 7 0 9 0;
#X connect 7 1 10 0;
#X connect 8 0 7 0;
#X connect 11 0 22 0;
#X connect 11 0 26 0;
#X connect 15 0 18 0;
#X connect 16 0 6 0;
#X connect 17 0 5 0;
#X connect 19 0 7 0;
#X connect 20 0 11 0;
#X connect 21 0 11 0;
#X connect 22 0 12 0;
#X connect 22 1 13 0;
#X connect 22 2 23 0;
#X connect 22 3 14 0;
#X connect 24 0 25 0;
