#N canvas 567 112 1261 695 12;
#X declare -path else;
#X obj 155 218 *~;
#X obj 155 300 delwrite~ \$0-tap-delay 3000;
#X obj 76 408 *~ 0.7;
#X obj 63 517 *~ 0.7;
#X obj 76 436 throw~ \$0-tapL;
#X obj 280 436 throw~ \$0-tapR;
#X obj 63 545 throw~ \$0-tapL;
#X obj 272 545 throw~ \$0-tapR;
#X obj 496 540 throw~ \$0-tapL;
#X obj 702 539 throw~ \$0-tapR;
#X obj 555 197 catch~ \$0-tapL;
#X obj 598 226 catch~ \$0-tapR;
#X obj 280 408 *~ 0.9;
#X obj 479 408 *~ 0.8;
#X obj 698 409 *~ 1;
#X obj 272 517 *~ 0.8;
#X obj 496 512 *~ 0.6;
#X obj 702 511 *~ 0.9;
#X obj 174 272 throw~ \$0-tapL;
#X obj 184 249 throw~ \$0-tapR;
#X obj 76 381 delread~ \$0-tap-delay 150;
#X obj 280 381 delread~ \$0-tap-delay 250;
#X obj 479 381 delread~ \$0-tap-delay 400;
#X obj 698 382 delread~ \$0-tap-delay 600;
#X obj 63 490 delread~ \$0-tap-delay 700;
#X obj 272 490 delread~ \$0-tap-delay 850;
#X obj 496 484 delread~ \$0-tap-delay 1000;
#X obj 702 484 delread~ \$0-tap-delay 1200;
#X obj 155 94 expr random(30 \, 61);
#X obj 155 118 t f b;
#X obj 155 151 mtof;
#X obj 479 436 throw~ \$0-tapR;
#X obj 698 437 throw~ \$0-tapL;
#X obj 155 183 bl.saw~ saw;
#X obj 555 255 out~;
#X obj 252 178 envgen~ 20 1 10 1 20 0, f 12;
#X obj 13 10 declare -path else;
#X obj 155 32 metro 250;
#X obj 155 11 tgl 15 0 empty empty empty 17 7 0 10 -262144 -1 -1 0
1;
#X obj 710 281 writesf~ 2;
#X obj 710 224 openpanel;
#X msg 710 249 open \$1;
#X obj 711 197 bng 15 250 50 0 empty empty empty 17 7 0 10 -262144
-1 -1;
#X obj 172 60 random;
#X floatatom 1062 88 5 0 0 0 - - -;
#X obj 1062 112 / 127;
#X obj 1062 137 * 4825;
#X obj 1061 162 + 125;
#X obj 1061 58 ctlin 0;
#N canvas 67 89 450 300 midicontrol 1;
#X obj 6 32 / 127;
#X obj 5 82 + 125;
#X obj 6 6 ctlin 0;
#X obj 79 6 ctlin 64;
#X obj 79 32 s on/off;
#X obj 5 107 s metro;
#X obj 6 57 * 875;
#X connect 0 0 6 0;
#X connect 1 0 5 0;
#X connect 2 0 0 0;
#X connect 3 0 4 0;
#X connect 6 0 1 0;
#X restore 877 175 pd midicontrol;
#X obj 174 7 r on/off;
#X obj 278 45 r metro;
#X connect 0 0 1 0;
#X connect 0 0 18 0;
#X connect 0 0 19 0;
#X connect 2 0 4 0;
#X connect 3 0 6 0;
#X connect 10 0 34 0;
#X connect 10 0 39 0;
#X connect 11 0 34 1;
#X connect 11 0 39 1;
#X connect 12 0 5 0;
#X connect 13 0 31 0;
#X connect 14 0 32 0;
#X connect 15 0 7 0;
#X connect 16 0 8 0;
#X connect 17 0 9 0;
#X connect 20 0 2 0;
#X connect 21 0 12 0;
#X connect 22 0 13 0;
#X connect 23 0 14 0;
#X connect 24 0 3 0;
#X connect 25 0 15 0;
#X connect 26 0 16 0;
#X connect 27 0 17 0;
#X connect 28 0 29 0;
#X connect 29 0 30 0;
#X connect 29 1 35 0;
#X connect 30 0 33 0;
#X connect 33 0 0 0;
#X connect 35 0 0 1;
#X connect 37 0 43 0;
#X connect 37 0 28 0;
#X connect 38 0 37 0;
#X connect 40 0 41 0;
#X connect 41 0 39 0;
#X connect 42 0 40 0;
#X connect 43 0 37 1;
#X connect 44 0 45 0;
#X connect 45 0 46 0;
#X connect 46 0 47 0;
#X connect 48 0 44 0;
#X connect 50 0 38 0;
#X connect 51 0 43 1;
